<svg id="Layer_1" data-name="Layer 1" xmlns="http://www.w3.org/2000/svg" viewBox="0 0 110 110.01"><title>Artboard 13</title><path d="M55,110a55,55,0,1,1,55-55A55.06,55.06,0,0,1,55,110ZM55,3a52,52,0,1,0,52,52A52.06,52.06,0,0,0,55,3Z"/><path d="M80.91,43.15a19.79,19.79,0,0,1-5.49,1.49l0-.1a10,10,0,0,0,4.4-5.38,21.32,21.32,0,0,1-6.23,2.49,9.94,9.94,0,0,0-17.28,6.69c0,.38.18,2,.21,2A26.36,26.36,0,0,1,36.16,40.14a10.54,10.54,0,0,0,2.59,13.39,10.33,10.33,0,0,1-4-.86A10.4,10.4,0,0,0,43,62.26a10.3,10.3,0,0,1-4.81-.1,10.4,10.4,0,0,0,9.34,7.07,23,23,0,0,1-14,4.4,27.71,27.71,0,0,0,14.45,4C67.33,77.48,77.27,60.3,76.09,48a10,10,0,0,0,4.82-4.82"/></svg>