<svg id="Layer_1" data-name="Layer 1" xmlns="http://www.w3.org/2000/svg" viewBox="0 0 110 110.01"><title>Artboard 16</title><path d="M55,110a55,55,0,1,1,55-55A55.06,55.06,0,0,1,55,110ZM55,3a52,52,0,1,0,52,52A52.06,52.06,0,0,0,55,3Z"/><path d="M55.23,34c6.63,0,7.41,0,10,.14a13.74,13.74,0,0,1,4.61.85,8.22,8.22,0,0,1,4.71,4.71,13.74,13.74,0,0,1,.85,4.61c.12,2.62.14,3.4.14,10s0,7.41-.14,10A13.74,13.74,0,0,1,74.59,69a8.22,8.22,0,0,1-4.71,4.71,13.73,13.73,0,0,1-4.61.85c-2.62.12-3.4.14-10,.14s-7.41,0-10-.14a13.73,13.73,0,0,1-4.61-.85A8.22,8.22,0,0,1,35.88,69,13.74,13.74,0,0,1,35,64.38c-.12-2.62-.14-3.4-.14-10s0-7.41.14-10a13.74,13.74,0,0,1,.85-4.61A8.22,8.22,0,0,1,40.59,35a13.74,13.74,0,0,1,4.61-.85c2.62-.12,3.4-.14,10-.14m0-4.47c-6.74,0-7.59,0-10.23.15a18.22,18.22,0,0,0-6,1.15,12.69,12.69,0,0,0-7.26,7.26,18.22,18.22,0,0,0-1.15,6c-.12,2.65-.15,3.49-.15,10.23s0,7.59.15,10.24a18.22,18.22,0,0,0,1.15,6A12.69,12.69,0,0,0,39,77.87,18.22,18.22,0,0,0,45,79c2.65.12,3.49.15,10.23.15s7.59,0,10.23-.15a18.22,18.22,0,0,0,6-1.15,12.69,12.69,0,0,0,7.26-7.26,18.22,18.22,0,0,0,1.15-6c.12-2.65.15-3.49.15-10.24s0-7.59-.15-10.23a18.22,18.22,0,0,0-1.15-6,12.69,12.69,0,0,0-7.26-7.26,18.22,18.22,0,0,0-6-1.15c-2.65-.12-3.49-.15-10.23-.15"/><path d="M55.23,41.6A12.75,12.75,0,1,0,68,54.35,12.75,12.75,0,0,0,55.23,41.6m0,21a8.27,8.27,0,1,1,8.27-8.27,8.27,8.27,0,0,1-8.27,8.27"/><path d="M71.46,41.1a3,3,0,1,1-3-3,3,3,0,0,1,3,3"/></svg>