<svg id="Layer_1" data-name="Layer 1" xmlns="http://www.w3.org/2000/svg" viewBox="0 0 110 110.01"><title>Artboard 17</title><path d="M55,110a55,55,0,1,1,55-55A55.06,55.06,0,0,1,55,110ZM55,3a52,52,0,1,0,52,52A52.06,52.06,0,0,0,55,3Z"/><path d="M55.56,28.83a15.39,15.39,0,0,1,6.25,1.34A13.89,13.89,0,0,1,69,37.64a16.25,16.25,0,0,1,.75,6.06c0,1.15-.06,2.31-.13,3.46q-.05.87-.11,1.74l-.06,1a2.76,2.76,0,0,0,0,.68c.1.44.8.74,1.19.86a4.85,4.85,0,0,0,3.08-.26,4.13,4.13,0,0,1,1.76-.5,2.26,2.26,0,0,1,1.34.59.68.68,0,0,1,0,1,5.29,5.29,0,0,1-2.31,1.28,15.65,15.65,0,0,0-2.57,1A3.74,3.74,0,0,0,70,56.46a4,4,0,0,0,.37,3A20.89,20.89,0,0,0,73.18,64a16.58,16.58,0,0,0,8,5.59,14.24,14.24,0,0,0,1.43.34c.2,0,.34,0,.26.21a.47.47,0,0,1,0,.08,1.61,1.61,0,0,1-.45.44,9.34,9.34,0,0,1-3.29,1.28c-.53.13-1.06.24-1.59.34a8,8,0,0,0-1.67.32c-.83.36-.95,1.59-1.12,2.35-.07.3-.13.59-.21.89s0,.39-.33.4a7.3,7.3,0,0,1-1.42-.2,16.21,16.21,0,0,0-3.33-.28,10,10,0,0,0-3.6.64,16,16,0,0,0-3,1.81,15.3,15.3,0,0,1-5.39,2.8,12.51,12.51,0,0,1-3.11.22,9.47,9.47,0,0,1-3.22-.68,34.44,34.44,0,0,1-5.31-3.29,8.62,8.62,0,0,0-3.25-1.32,14.46,14.46,0,0,0-3.78-.1c-.49.05-1,.13-1.46.22a6.87,6.87,0,0,1-1.47.24c-.23,0-.23-.08-.29-.29s-.16-.64-.23-1a10.84,10.84,0,0,0-.38-1.47,1.58,1.58,0,0,0-.72-.93,6.83,6.83,0,0,0-1.64-.32,24.29,24.29,0,0,1-2.86-.69,5.66,5.66,0,0,1-2.37-1.19,1.09,1.09,0,0,1-.16-.19.34.34,0,0,1,0-.07c-.07-.2,0-.17.21-.21a14.14,14.14,0,0,0,2.72-.79,15.67,15.67,0,0,0,4.39-2.71,20.61,20.61,0,0,0,4.69-6,8.31,8.31,0,0,0,1-2.46c.34-2.14-1.42-3.36-3.2-4a17.76,17.76,0,0,1-2.8-1.08c-.4-.23-1.18-.68-1.12-1.25s.58-.73.94-.86a1.93,1.93,0,0,1,.77-.14,2.75,2.75,0,0,1,.87.3,6.36,6.36,0,0,0,3.33.55,2.76,2.76,0,0,0,1.56-.72.43.43,0,0,0,.16-.26,3.55,3.55,0,0,0,0-.75c0-.6-.07-1.2-.11-1.8a50.65,50.65,0,0,1-.11-6.87,13.47,13.47,0,0,1,.49-2.91,11.66,11.66,0,0,1,1.27-2.66,13.78,13.78,0,0,1,3.62-3.94,14.88,14.88,0,0,1,7.33-2.69c.83-.08,1.67-.08,2.51-.08"/></svg>